<?xml version="1.0" encoding="UTF-8"?>
<svg enable-background="new 0 0 800 600" version="1.1" viewBox="0 0 800 600" xmlns="http://www.w3.org/2000/svg">
 <rect width="800" height="600" fill="#EA5D5A"/>
 <circle cx="321.3" cy="343" r="244.58" fill="#FFD6C4"/>
 <path d="m800 600v-56.321c-1.182-0.589-1.191-1.762-1.276-2.808-0.085-1.049 0.638-0.84 1.276-0.579v-20.309c-0.492-2.617-1.008-5.229-1.467-7.854-0.191-1.093 0.767-1.334 1.467-1.738v-2.821c-1.013 0.066-2.023 0.145-3.036 0.194-0.258 0.014-0.649-0.169-0.758-0.055-1.296 1.362-3.153 1.062-4.71 1.628-3.042 1.104-5.878 2.512-8.106 4.937-0.317 0.347-0.652 0.676-0.987 1.006-0.469 0.463-0.987 0.502-1.521 0.126-0.384-0.271-0.761-0.552-1.117-0.854-3.547-3-7.615-5.141-11.756-7.158-0.149-0.073-0.349-0.046-0.524-0.063 0.063 0.225 0.052 0.549 0.199 0.661 2.85 2.148 5.685 4.317 8.597 6.377 1.174 0.829 1.735 1.678 1.747 3.221 0.015 2.104-0.33 3.869-2.007 5.271-0.488 0.409-0.76 1.065-1.167 1.58-0.796 1.007-1.729 1.021-2.178-0.083-1.097-2.69-2.371-5.404-0.478-8.306 0.209-0.324 0.083-0.864 0.113-1.307-0.342 0.229-0.748 0.405-1.008 0.705-0.298 0.349-0.435 0.832-0.695 1.219-0.636 0.95-0.89 0.979-2.036 0.29-0.159-0.098-0.285-0.27-0.452-0.326-0.139-0.046-0.319 0.014-0.473 0.06-0.031 0.011-0.057 0.181-0.023 0.248 0.284 0.59 0.649 1.152 0.853 1.77 0.133 0.401 0.216 1.013 8e-3 1.297-0.677 0.923-0.656 1.908-0.638 2.957 0.015 0.838-0.079 1.997-0.93 2.145-0.608 0.103-1.442-0.67-2.062-1.189-0.41-0.344-0.667-0.907-0.912-1.409-1.07-2.194-2.167-4.381-3.134-6.624-0.382-0.889-0.822-1.592-1.571-2.242-1.519-1.313-2.526-2.918-2.62-5.081-0.072-1.675-0.395-3.371-0.853-4.99-0.508-1.79-1.254-3.521-1.991-5.238-0.25-0.583-1.115-0.455-1.32 0.163-0.576 1.735-0.57 3.52-0.19 5.283 0.142 0.653 0.093 1.489 1.14 1.719 0.3 0.066 0.663 0.993 0.581 1.45-0.414 2.303 0.604 4.245 1.477 6.188 1.639 3.643 1.531 7.495 1.566 11.336 1e-3 0.188-0.303 0.395-0.5 0.546-0.027 0.023-0.324-0.182-0.376-0.326-0.604-1.679-1.145-3.379-1.785-5.043-0.638-1.658-1.354-3.285-2.073-4.908-0.093-0.214-0.407-0.326-0.619-0.484-0.117 0.216-0.344 0.438-0.334 0.648 0.245 4.875 1.331 9.481 4.347 13.469 0.331 0.438 0.623 0.941 0.767 1.464 0.079 0.288-0.129 0.713-0.33 0.991-0.071 0.099-0.546 0.014-0.76-0.117-2.474-1.5-4.289-3.593-5.622-6.159-0.689-1.327-1.434-2.663-2.375-3.815-0.765-0.938-1.473-2.121-2.914-2.264 0.437 1.115 0.819 2.257 1.32 3.343 0.549 1.193 1.214 2.331 1.805 3.505 0.064 0.128 0.018 0.391-0.079 0.498-0.101 0.113-0.354 0.198-0.493 0.152-1.157-0.386-2.3-0.815-3.457-1.203-0.134-0.044-0.327 0.089-0.494 0.142 0.091 0.152 0.144 0.375 0.278 0.45 1.479 0.819 2.943 1.67 4.466 2.402 1.26 0.604 2.115 1.498 2.654 2.774 0.699 1.642 1.472 3.253 2.189 4.888 0.694 1.58 0.449 2.223-0.992 2.936-1.251 0.621-2.474 1.298-3.717 1.936-0.641 0.328-0.779 0.829-0.385 1.373 0.673 0.93 0.499 1.759-0.176 2.558-0.597 0.707-1.183 1.432-1.859 2.052-0.214 0.195-0.795 0.209-1.068 0.056-0.337-0.191-0.748-0.65-0.733-0.976 0.025-0.52 0.376-1.02 0.588-1.53-0.515-0.08-1.082-0.057-1.53-0.274-0.354-0.172-0.72-0.611-0.803-0.989-0.228-1.054-0.396-2.107-1.106-3.595 0 1.696 0.017 2.812-5e-3 3.927-0.023 1.247-0.37 1.846-0.964 1.699-0.933-0.233-0.941-1.049-1.059-1.782-0.029-0.181-0.034-0.378-5e-3 -0.559 0.283-1.729-0.285-3.344-0.692-4.969-0.154-0.618-0.53-1.187-0.847-1.756-0.07-0.124-0.319-0.225-0.47-0.207-0.143 0.017-0.351 0.184-0.38 0.316-0.076 0.364-0.118 0.747-0.095 1.119 0.069 1.028 0.214 2.054 0.261 3.085 0.055 1.179-1.02 1.846-2.125 1.327-0.227-0.108-0.36-0.411-0.545-0.617-0.32-0.356-0.662-0.306-0.923 0.039-0.446 0.589-0.715 1.517-1.292 1.77-2.015 0.884-3.627 2.332-5.431 3.51-1.25 0.816-1.757 0.697-2.568-0.488-2.124-3.1-4.245-6.199-6.35-9.309-0.755-1.119-0.703-1.437 0.046-2.52 2.144-3.088 4.343-6.141 6.366-9.304 1.207-1.89 2.136-3.961 3.152-5.966 0.092-0.183-9e-3 -0.616-0.167-0.727-0.167-0.119-0.552-0.075-0.764 0.039-1.852 1.013-3.286 2.516-4.555 4.153-2.648 3.411-5.218 6.886-7.82 10.332-0.396 0.525-0.775 1.067-1.214 1.555-0.158 0.175-0.47 0.214-0.71 0.312-0.092-0.249-0.273-0.503-0.26-0.744 0.057-1.033 0.14-2.064 0.271-3.088 0.511-3.941 0.359-7.879-0.116-11.806-0.156-1.3-0.499-2.579-0.776-3.863-0.035-0.163-0.198-0.297-0.301-0.447-0.176 0.203-0.489 0.392-0.507 0.604-0.117 1.399-0.229 2.809-0.235 4.213-0.025 5.452-7e-3 10.905-0.01 16.356-2e-3 1.219 0.133 2.502-0.687 3.528-2.052 2.571-3.616 5.46-5.443 8.177-0.156 0.231-0.326 0.476-0.544 0.641-0.207 0.157-0.595 0.374-0.706 0.294-0.26-0.189-0.561-0.537-0.567-0.829-0.041-1.675-0.012-3.354 0.013-5.032 0.08-5.752-0.896-11.416-1.484-17.109-0.327-3.174-0.902-6.314-0.795-9.532 0.104-3.1 0.073-6.206 0.033-9.308-0.013-1.017-0.214-2.038-0.396-3.044-0.033-0.189-0.402-0.473-0.571-0.445-0.211 0.034-0.501 0.326-0.538 0.544-0.28 1.665-0.666 3.331-0.718 5.008-0.12 3.938-0.382 7.894 0.432 11.806 0.151 0.73 0.136 1.497 0.184 2.244 5e-3 0.081-0.067 0.232-0.121 0.24-0.164 0.028-0.378 0.06-0.495-0.021-0.226-0.159-0.472-0.358-0.582-0.599-1.325-2.893-2.903-5.705-2.765-9.054 0.042-1.031 0.079-2.09-0.104-3.096-0.263-1.461 0.092-3.312-2.01-3.868-0.184-0.05-0.349-0.444-0.394-0.704-0.491-2.84-2.144-5.44-1.76-8.466 0.03-0.248-0.084-0.55-0.218-0.774-0.51-0.856-1.054-1.692-1.698-2.716-0.073 0.609-0.209 1.061-0.168 1.498 0.168 1.73-0.282 3.133-1.848 4.09-0.385 0.235-0.666 0.654-0.957 1.021-0.096 0.12-0.146 0.382-0.078 0.498 0.062 0.105 0.342 0.186 0.47 0.138 0.346-0.135 0.655-0.364 0.993-0.522 0.968-0.455 1.374-0.313 1.626 0.694 0.227 0.907 0.354 1.844 0.471 2.773 0.558 4.47 0.913 8.974 1.682 13.406 1.186 6.852 2.648 13.652 3.996 20.474 0.236 1.197 0.496 2.392 0.705 3.595 0.037 0.217-0.116 0.479-0.23 0.695-0.018 0.03-0.355-0.053-0.487-0.156-0.294-0.232-0.561-0.503-0.823-0.769-1.447-1.479-2.863-2.987-4.349-4.424-0.669-0.646-1.442-1.203-2.237-1.686-0.408-0.245-0.65 0.112-0.63 0.567 0.013 0.275 0.027 0.553 0.04 0.829 0.015-0.011 0.028-0.02 0.042-0.029 0.012 0.024 0.021 0.051 0.031 0.077 0.558 0.273 1.194 0.463 1.632 0.867 2.156 1.995 3.465 4.488 3.924 7.463-0.329-0.505-0.713-0.981-0.977-1.517-1.035-2.103-2.317-4.02-4-5.667-0.288-0.285-0.402-0.749-0.579-1.146-0.022-0.014-0.048-0.024-0.072-0.035 0-5e-3 0-0.01-1e-3 -0.013-0.546 0.376-1.106 0.727-1.698 0.077-0.443-0.484-0.836-1.014-1.277-1.501-0.11-0.121-0.314-0.158-0.475-0.233-0.03 0.16-0.133 0.357-0.073 0.472 0.251 0.506 0.562 0.979 0.83 1.475 0.929 1.717 0.781 3.186-0.532 4.545-0.414 0.429-1.033 0.581-1.509 0.08-0.972-1.028-1.899-2.114-2.007-3.615-0.072-1.012 0.073-2.101-1.582-1.689-0.244 0.06-0.711-0.546-0.997-0.907-1.051-1.324-2.071-2.674-3.103-4.018-3.059-3.979-2.946-2.842-0.445-7.215 2.988-5.223 5.899-10.488 7.879-16.197 0.305-0.879 1.155-1.742 0.463-2.813-0.668 0.635-1.351 1.252-1.995 1.906-0.26 0.264-0.438 0.61-0.656 0.917-2.863 3.973-5.421 8.126-7.487 12.577-0.27 0.58-0.681 1.104-1.082 1.605-0.061 0.077-0.622-0.073-0.635-0.165-0.081-0.551-0.073-1.115-0.086-1.675-0.062-2.724-0.49-5.382-1.43-7.978-0.338 3.097-0.464 6.185-0.621 9.271-0.018 0.336-0.229 0.665-0.351 0.998-0.325-0.124-0.747-0.158-0.959-0.388-1.278-1.378-2.485-2.822-3.762-4.202-0.748-0.807-1.09-1.721-1.089-2.807 1e-3 -1.032 0.029-2.075-0.08-3.1-0.15-1.396-0.411-2.777-0.652-4.161-0.021-0.136-0.24-0.351-0.334-0.334-0.15 0.027-0.347 0.188-0.394 0.336-0.171 0.534-0.309 1.084-0.421 1.631-0.6 2.944-1.176 5.892-1.797 8.83-0.09 0.432-0.375 0.824-0.571 1.232-0.302-0.308-0.687-0.567-0.89-0.93-1.235-2.215-2.355-4.498-3.656-6.673-1.495-2.496-3.12-4.915-4.732-7.341-0.409-0.616-0.97-1.139-1.485-1.679-0.106-0.11-0.33-0.11-0.499-0.163-0.048 0.167-0.174 0.359-0.132 0.5 0.16 0.54 0.341 1.077 0.576 1.589 2.669 5.806 5.351 11.606 8.029 17.408 0.313 0.684 0.636 1.361 0.909 2.062 0.027 0.066-0.305 0.398-0.42 0.374-0.633-0.131-0.925 0.14-0.854 0.719 0.252 2.047 0.436 4.114 0.866 6.125 0.309 1.447 0.914 2.846 1.498 4.22 0.618 1.459-0.182 2.74-0.342 4.102-1.192-0.053-2.462 0.133-3.556-0.224-1.116-0.365-2.249-1.095-3.021-1.974-0.625-0.714-1.033-0.936-1.981-0.89-0.802 0.036-1.273-0.703-0.769-1.646 0.066-0.124-0.229-0.441-0.355-0.671-0.146 0.094-0.314 0.168-0.433 0.289-0.131 0.131-0.185 0.345-0.326 0.455-0.946 0.751-1.052 2.702-2.294 2.569-1.133-0.12-2.152-1.335-3.213-2.081-0.148-0.103-0.317-0.253-0.366-0.415-0.13-0.435-0.413-0.994-0.254-1.312 0.377-0.755 0.691 0.079 1.054 0.171 0.087 0.022 0.341-0.207 0.327-0.237-0.146-0.331-0.259-0.723-0.513-0.948-0.628-0.553-1.704-0.902-1.923-1.561-0.669-2.005-2.683-2.86-3.595-4.616-0.127-0.246-0.733-0.526-0.895-0.425-0.838 0.515-1.176-0.127-1.627-0.57-1.17-1.156-1.899-2.578-2.304-4.141-0.519-1.999-0.962-4.021-1.354-6.047-0.769-3.964-1.459-7.944-2.228-11.909-0.176-0.909-0.541-1.784-0.823-2.673-0.77-2.415-1.567-4.819-2.29-7.249-0.181-0.608-0.285-1.327-0.136-1.922 0.245-0.978-0.029-1.84-0.168-2.766-0.149-0.998-0.164-2.039-0.078-3.047 0.335-3.907 0.805-7.803 1.076-11.713 0.115-1.667-0.017-3.376-0.238-5.04-0.326-2.443 0.121-4.862 0.021-7.283-0.255-6.091-0.742-12.177-7e-3 -18.265 0.179-1.489 0.537-2.982 0.505-4.467-0.119-5.347-0.191-10.708-0.612-16.036-0.601-7.59-2.937-14.692-6.632-21.365-2.384-4.308-5.697-7.932-8.469-11.949-0.797-1.154-1.747-2.211-2.678-3.269-4.901-5.573-9.808-11.146-14.735-16.698-2.37-2.67-4.8-5.287-7.193-7.935-1.953-2.161-3.908-4.32-5.832-6.505-2.605-2.96-5.039-6.079-8.29-8.405-0.605-0.436-1.137-0.984-1.66-1.523-1.197-1.233-1.278-1.536-0.188-2.857 1.705-2.069 2.712-4.491 3.79-6.89 0.433-0.967 0.769-1.983 0.366-3.001-0.409-1.04-0.036-1.701 0.594-2.511 0.96-1.241 0.764-2.036-0.545-2.741-3.965-2.136-7.861-4.407-12.26-5.624-2.26-0.625-4.471-1.422-6.685-2.2-0.874-0.307-1.703-0.757-2.529-1.193-0.171-0.09-0.225-0.404-0.332-0.612 0.173-3e-3 0.356-0.037 0.518 7e-3 0.177 0.046 0.325 0.188 0.501 0.249 1.224 0.428 1.219 0.423 1.63-0.645 0.305-0.784 0.524-1.627 0.959-2.337 1.437-2.346-0.172-4.102-1.082-5.992-0.099-0.202-0.46-0.396-0.697-0.396-1.832 0.014-3.088-1.17-4.544-2.009-2.007-1.151-4.024-2.463-6.597-1.662-0.541 0.168-1.321-0.066-1.867-0.351-1.694-0.889-3.43-0.928-5.198-0.423-1.048 0.298-2.023 0.14-3.045-0.112-1.783-0.441-3.254-1.297-4.526-2.652-2.379-2.525-4.845-4.968-7.319-7.398-0.271-0.266-1.014-0.461-1.233-0.294-1.181 0.899-2.368 1.83-3.352 2.93-0.995 1.11-1.749 2.433-2.613 3.659-0.746 1.06-0.749 1.058-1.84 0.183-1.351-1.081-2.15-0.971-2.893 0.484-0.726 1.423-1.373 2.886-2.06 4.327-1.256 2.645-1.716 2.912-4.568 2.481-0.737-0.109-1.497-0.277-2.164-0.592-0.45-0.214-0.962-0.672-1.093-1.122-0.542-1.888-1.121-3.793-1.361-5.73-0.262-2.103-1.08-3.939-2.034-5.757-0.742-1.413-1.588-2.775-2.281-4.21-0.481-0.999-0.927-2.055-1.139-3.134-0.717-3.643-2.004-7.011-4.271-9.987-0.794-1.044-1.491-2.164-2.192-3.275-0.891-1.412-0.961-2.801 0.185-4.15 0.667-0.787 1.19-1.714 1.928-2.421 2.162-2.072 1.428-4.447 0.854-6.828-1.774-1.766-2.168-4.054-2.418-6.398-0.01-0.092-0.054-0.181-0.096-0.264-0.715-1.395-0.697-2.897-0.685-4.408 0.014-1.974 0.077-3.974-0.86-5.798-0.482-0.937-0.256-1.552 0.542-2.166 0.984-0.756 1.197-1.798 1.037-3.027-0.105-0.809 7e-3 -1.677 0.18-2.485 0.749-3.49 1.478-6.986 2.358-10.443 1.326-5.205 1.249-10.637 2.669-15.82 0.073-0.268 0.088-0.561 0.081-0.84-0.087-3.661 0.023-7.34-0.329-10.976-0.445-4.576-1.232-9.121-1.949-13.667-0.251-1.569-0.557-3.174-1.148-4.635-1.949-4.804-5.028-8.79-9.214-11.876-1.431-1.055-2.841-2.3-4.698-2.428-2.708-0.187-5.35-0.998-8.104-0.775-1.424 0.115-1.808-0.249-2.046-1.718-0.479-2.966-0.889-5.942-1.357-8.911-0.111-0.706 0.113-1.072 0.818-1.153 0.186-0.021 0.371-0.063 0.554-0.102 5.328-1.14 8.516-6.561 8.412-10.709-0.04-1.598-0.052-3.197-3e-3 -4.794 0.073-2.417-1.085-4.552-1.509-6.854-0.045-0.251-0.269-0.494-0.461-0.69-0.854-0.869-1.629-1.858-2.608-2.551-3.336-2.355-5.911-5.499-8.856-8.254-2.117-1.979-3.312-4.099-2.938-7.152 0.416-3.404-0.801-6.533-2.781-9.25-1.315-1.806-2.867-3.49-4.534-4.98-3.819-3.414-8.269-5.863-12.965-7.86-2.006-0.854-4.135-1.198-6.318-1.286-1.157-0.047-1.983 0.265-2.51 1.366-0.485 1.015-1.094 1.971-1.645 2.954-1.071 1.916-2.49 3.447-4.342 4.701-1.455 0.985-2.74 2.296-3.891 3.642-1.828 2.134-3.444 4.446-5.232 6.618-0.511 0.623-1.234 1.315-1.966 1.466-3.106 0.642-6.178 1.394-9.393 0.058-3.506-1.456-7.264-1.854-11.069-1.669-1.762 0.086-3.325 0.619-4.546 1.928-0.873 0.937-0.994 2.074-0.281 3.085 0.371 0.525 0.837 1.072 1.39 1.361 1.322 0.694 2.716 1.248 4.088 1.845 1.113 0.486 2.399 0.742 3.321 1.467 3.841 3.017 7.59 6.154 11.327 9.302 0.453 0.381 0.833 1.072 0.897 1.656 0.3 2.795 0.438 5.609 0.714 8.409 0.312 3.174 0.693 6.343 1.076 9.509 0.134 1.116 0.515 2.22 0.518 3.331 4e-3 1.974 0.828 3.514 2.36 4.564 1.546 1.059 1.894 2.417 1.756 4.131-0.082 1.036-0.358 1.751-1.452 2.117-1.282 0.43-2.491 1.28-2.893 2.521-0.458 1.429-1.401 2.38-2.251 3.482-0.684 0.885-1.19 1.908-1.759 2.88-0.8 1.37-1.595 2.744-2.373 4.127-0.568 1.013-1.19 1.686-2.417 0.804-0.238-0.17-0.808-0.163-1.05 9e-3 -0.784 0.556-1.353 0.117-2.06-0.173-1.33-0.547-2.856-0.953-3.932 0.302-1.337 1.558-2.926 1.186-4.546 1.028-0.273-0.026-0.533-0.196-0.806-0.233-1.298-0.174-2.553-0.307-3.875 0.173-0.813 0.295-1.828 0.046-2.752 0.022s-1.864-0.197-2.769-0.078c-1.667 0.222-3.311 0.615-4.965 0.929-1.63 0.311-3.407 5e-3 -4.841 1.144-1.64-0.311-3.276-0.647-4.922-0.918-0.452-0.075-0.942 0.106-1.403 0.056-0.642-0.07-1.42-0.053-1.885-0.409-2.715-2.075-6.512-0.904-9.152-3.122-0.064-0.053-0.184-0.064-0.273-0.057-2.195 0.163-3.984-0.955-5.806-1.901-1.401-0.727-2.738-1.582-4.072-2.431-0.282-0.179-0.487-0.555-0.62-0.883-0.209-0.521-0.266-1.104-0.491-1.615-0.684-1.55-1.309-3.405-2.895-4.023-3.27-1.272-6.098-3.27-9.131-4.924-0.329-0.179-0.693-0.295-1.023-0.472-1.398-0.75-2.875-1.393-4.166-2.299-1.91-1.34-3.706-2.845-5.51-4.331-1.154-0.951-2.263-1.962-3.34-3.001-1.614-1.555-3.051-3.326-4.799-4.708-3.467-2.74-6.745-5.675-9.778-8.875-1.12-1.182-2.272-2.269-3.804-2.827-3.583-1.307-6.724-3.306-9.521-5.876-1.256-1.155-2.656-2.075-4.281-2.649-2.212-0.782-4.416-1.588-6.608-2.426-0.595-0.228-1.296-0.474-1.668-0.937-1.109-1.38-2.26-2.77-2.389-4.688-0.035-0.518-0.227-1.184-0.591-1.495-2.125-1.809-2.763-4.291-3.3-6.834-0.02-0.022-0.039-0.044-0.059-0.067-0.011-0.02-0.021-0.041-0.032-0.061-1.19-0.307-1.598-1.412-2.259-2.259 1.39 0.125 1.731 1.284 2.259 2.259 0.024 6e-3 0.043 0.017 0.068 0.023 7e-3 0.035 0.016 0.07 0.023 0.105 0.728 0.816 1.432 1.654 2.196 2.434 0.635 0.649 1.347 1.222 2.026 1.828 0.632-1.161-0.473-1.892-0.709-2.838-0.068-0.27-0.284-0.514-0.311-0.782-0.165-1.633-1.143-3.192-0.417-4.911 0.264-0.624 0.731-0.975 1.304-0.755 0.945 0.36 1.813 0.917 2.73 1.357 0.203 0.098 0.473 0.055 0.712 0.076-0.063-0.173-0.077-0.399-0.198-0.507-0.627-0.559-1.229-1.173-1.939-1.607-1.668-1.019-3.345-1.955-4.783-3.366-1.097-1.077-2.546-1.957-4.337-1.512-0.969 0.24-1.864 0.496-2.983 0.092-1.023-0.368-2.07-0.442-2.896-1.334-0.413-0.446-1.071-0.578-1.654 0.194-0.837 1.109-1.133 1.125-1.94 0.354-1.219-1.166-2.31-2.454-4.003-3.017-0.332-0.11-0.551-0.693-0.733-1.098-0.823-1.842-1.616-3.7-2.418-5.551-4e-3 -2e-3 -9e-3 -4e-3 -0.014-6e-3 -4e-3 0.446 0.033 0.899-0.046 1.331-0.026 0.138-0.524 0.345-0.568 0.298-0.549-0.589-1.065-1.211-1.558-1.849-0.083-0.107-0.077-0.374 3e-3 -0.482 0.063-0.087 0.326-0.102 0.459-0.049 0.579 0.23 1.142 0.497 1.71 0.751v-0.025c4e-3 0.011 9e-3 0.021 0.014 0.031l0.021 9e-3c-0.37-0.51-0.645-1.159-1.135-1.493-0.602-0.41-1.365-0.704-2.087-0.785-1.995-0.224-3.032-1.414-4.05-3.05-1.193-1.916-1.794-4.08-3.028-5.983-1.053-1.624-1.725-3.503-2.918-5.098-0.545-0.727-0.848-1.684-1.088-2.583-1.3-4.857-3.689-9.226-6.007-13.632-0.86-1.635-2.133-2.866-3.691-3.789-2.278-1.35-4.729-2.303-7.324-2.849-0.545-0.114-1.124-0.177-1.675-0.13-1.589 0.135-2.284 1.312-1.668 2.784 0.216 0.518 0.499 1.012 0.791 1.495 1.708 2.824 2.41 5.878 2.214 9.169-0.167 2.804-0.38 5.592-0.175 8.426 0.261 3.6 1.445 6.711 3.723 9.476 0.519 0.63 0.892 1.417 1.183 2.187 0.402 1.062 0.125 1.625-1.021 1.807-1.486 0.237-2.685 0.753-3.436 2.136-0.159 0.292-0.551 0.549-0.884 0.639-1.35 0.364-2.72 0.913-4.081 0.909-1.657-4e-3 -2.884 0.672-4.089 1.591-0.447 0.342-0.841 0.751-1.277 1.108-0.525 0.429-1.055 0.323-1.522-0.094-0.348-0.31-0.682-0.651-0.963-1.024-1.411-1.874-2.797-3.767-4.206-5.644-0.277-0.37-0.566-0.764-0.937-1.023-0.608-0.425-1.269-0.258-1.853 0.11-0.559 0.351-0.636 0.884-0.423 1.48 0.221 0.617 0.502 1.222 0.651 1.857 0.833 3.561 1.491 7.17 3.004 10.537 0.077 0.172 0.12 0.357 0.181 0.534 0.249 0.717 8e-3 1.3-0.536 1.759-0.356 0.301-0.743 0.587-1.157 0.797-2.069 1.053-3.528 2.719-4.931 4.528-1.373 1.771-2.942 3.409-4.553 4.973-1.139 1.107-2.475 2.016-3.75 2.978-3.533 2.667-6.903 5.497-9.704 8.969-0.998 1.235-2.239 2.272-3.361 3.407-2.31 2.337-4.622 4.671-6.915 7.024-1.108 1.137-2.071 2.441-3.283 3.446-2.023 1.678-4.178 3.199-6.306 4.746-3.8 2.763-7.61 5.512-11.444 8.226-0.588 0.416-1.309 0.794-2.005 0.877-1.641 0.197-3.105 0.622-4.292 1.858-0.289 0.301-0.837 0.36-1.272 0.516-1.762 0.628-3.649 1.033-5.255 1.938-1.492 0.84-2.845 0.881-4.293 0.332-1.482-0.562-2.92-1.246-4.352-1.93-0.501-0.239-0.911-0.665-1.393-0.956-1.371-0.828-2.343-0.345-2.556 1.256-0.233 1.75 0.417 3.152 1.795 4.187 2.734 2.054 5.687 3.268 9.193 2.265 0.308-0.088 0.693 0.095 1.043 0.153-0.092 0.421-0.059 0.944-0.3 1.243-0.604 0.751-1.241 1.506-1.154 2.494 0.143 1.617-0.738 2.645-1.789 3.633-0.82 0.772-1.633 1.555-2.441 2.342-2.057 2.004-3.581 4.311-4.333 7.135-0.408 1.531-0.997 3.036-1.676 4.471-1.072 2.267-1.244 4.498-0.194 6.797 0.273 0.598 0.505 1.217 0.803 1.802 1.72 3.384 2.784 6.97 3.332 10.717 0.424 2.895 1.771 5.3 3.776 7.405 2.267 2.38 5.178 3.707 8.057 5.085 0.558 0.268 1.296 0.348 1.913 0.256 0.908-0.135 1.41 0.129 1.76 0.958 0.874 2.067 2.552 2.856 4.707 2.966 1.011 0.053 2.087 0.153 3.003 0.542 3.296 1.396 6.59 1.294 9.907 0.215 1.516-0.493 2.986-1.122 4.492-1.649 0.514-0.18 1.184-0.488 1.585-0.305 1.426 0.652 3.013 0.909 4.236 2.109 1.109 1.09 2.424 2.202 3.856 2.678 2.314 0.77 4.575 1.631 6.82 2.566 0.477 0.197 1.255 0.36 1.581 0.117 1.558-1.158 3.095-0.632 4.537 5e-3 3.288 1.455 6.736 2.353 10.21 3.168 1.554 0.366 2.754 1.112 3.592 2.48 1.568 2.56 3.161 5.103 4.755 7.645 0.571 0.911 0.918 1.817 0.486 2.916-0.158 0.401-0.182 1.098 0.48 1.077 1.268-0.042 1.812 0.792 2.399 1.656 3.806 5.6 8.714 10.082 14.409 13.637 5.346 3.337 10.929 6.226 17.346 7.03 4.283 0.535 8.548 1.423 12.859 0.317 1.69-0.434 2.559 0.82 3.627 1.659 0.107 0.086 0.059 0.532-0.063 0.712-1.253 1.848-0.509 3.997-0.93 5.966 1.208 1.913 0.407 3.531-0.709 5.133-0.318 0.455-0.551 0.993-0.719 1.525-0.605 1.912-0.901 3.862-0.208 5.81 0.62 1.743 1.616 3.174 3.491 3.799 0.744 0.248 0.908 0.907 0.881 1.599-0.042 1.033-0.175 2.063-0.182 3.096-8e-3 1.215-0.06 2.457 0.166 3.64 0.188 0.981 0.665 1.942 1.173 2.819 0.431 0.742 1.144 1.315 2.112 1.044 0.94-0.264 1.342-1.051 1.338-1.947-7e-3 -1.404-0.118-2.812-0.23-4.214-0.135-1.685-0.348-3.366-0.469-5.051-0.091-1.275 0.272-2.304 1.362-3.195 1.781-1.453 2.923-3.411 3.583-5.626 0.549-1.843 0.726-3.76 0.101-5.557-0.758-2.183-3.071-3.534-3.397-6.048-0.071-0.539-0.807-0.995-1.244-1.482-0.25-0.28-0.549-0.523-0.746-0.835-0.059-0.092 0.105-0.457 0.25-0.526 0.57-0.275 1.197-0.432 1.758-0.722 1.069-0.555 1.443-0.5 1.879 0.681 0.975 2.64 1.828 5.325 2.797 7.965 1.413 3.847 2.854 7.686 4.347 11.503 0.711 1.821 1.896 3.52 2.269 5.391 0.395 1.987 0.081 4.115 0.077 6.182 0 0.376 0.021 0.752 9e-3 1.127-0.069 1.965-0.132 3.931-0.224 5.895-0.166 3.546-0.239 7.1-0.56 10.631-0.306 3.356-1.005 6.678-1.299 10.033-0.381 4.354-1.692 8.448-3.032 12.554-0.699 2.14-1.496 4.257-2.051 6.432-0.88 3.453-1.568 6.956-2.384 10.426-1.088 4.629-0.683 9.12 1.007 13.549 0.733 1.923 1.293 3.913 1.95 5.868 0.774 2.309 1.466 4.649 2.375 6.903 1.295 3.214 2.735 6.368 4.153 9.529 0.653 1.456 1.536 2.816 2.086 4.304 1.514 4.094 3.897 7.674 6.342 11.227 1.003 1.458 1.896 3.012 3.036 4.354 1.881 2.215 3.697 4.411 5.141 6.986 1.718 3.065 2.558 6.307 2.631 9.676 0.061 2.746 0.504 5.41 0.848 8.1 0.225 1.761 0.308 3.596 0.889 5.241 0.582 1.65 0.271 2.918-0.638 4.214-2.864 4.075-5.711 8.161-8.604 12.216-1.601 2.244-1.932 2.288-4.383 1.023-0.417-0.213-0.819-0.459-1.233-0.681-2.485-1.327-5.031-2.556-7.442-4.004-2.36-1.42-4.622-1.16-6.954-0.107-0.798 0.359-1.187 1.033-0.842 1.824 0.408 0.935 0.919 1.857 1.546 2.659 2.956 3.773 6.021 7.455 9.545 10.732 1.215 1.131 1.21 1.268 0.03 2.455-0.978 0.985-1.409 1.918-0.569 3.226 0.34 0.527 0.452 1.226 0.58 1.863 0.443 2.214 1.586 3.999 3.25 5.479 1.054 0.937 2.115 1.866 3.2 2.763 1.771 1.473 3.821 2.407 6.057 2.872 1.375 0.288 2.794 0.364 4.19 0.559 1.951 0.271 3.753 0.048 5.211-1.449 0.515-0.529 1.076-0.543 1.794-0.332 2.25 0.661 4.513 1.299 6.804 1.793 1.211 0.259 1.792 0.838 1.916 2.036 0.247 2.388 1.667 3.888 3.766 4.861 0.511 0.237 0.967 0.604 1.489 0.799 2.066 0.776 3.249 2.146 3.219 4.441-4e-3 0.355 0.216 0.715 0.341 1.068 1.574 4.453 2.187 9.096 2.646 13.763 0.239 2.426 0.364 4.866 0.564 7.298 0.47 5.706 0.948 11.413 1.438 17.118 0.128 1.492 0.303 2.979 0.476 4.468 0.086 0.748 0.209 1.489 0.33 2.231 0.086 0.537-0.027 0.979-0.651 0.957-0.932-0.037-1.894-0.36-2.783-0.21-1.882 0.32-3.639 0.479-5.377-0.628-0.582-0.37-1.511-0.303-1.633 0.854-0.021 0.208-0.338 0.52-0.551 0.547-2.573 0.337-5.128 0.899-7.635-0.542-1.004-0.578-2.342-1.013-3.451-0.879-2.107 0.257-4.314-0.076-6.335 0.884-0.396 0.188-0.926 0.094-1.394 0.133-1.111 0.093-2.222 0.216-3.335 0.273-1.774 0.092-3.592 0.398-5.311 0.119-1.177-0.19-2.135-0.218-3.224 0.225-1.597 0.65-2.17 0.236-2.396-1.526-0.047-0.371-0.043-0.75-0.092-1.122-0.36-2.785-0.709-5.57-1.118-8.347-0.042-0.287-0.41-0.691-0.69-0.754-1.613-0.364-2.973 0.877-2.804 2.529 0.086 0.841 0.305 1.665 0.409 2.504 0.196 1.58 0.37 3.167 0.505 4.756 0.02 0.225-0.233 0.473-0.36 0.712-0.193-0.156-0.406-0.292-0.577-0.469-0.589-0.606-1.116-1.283-1.758-1.823-0.562-0.473-1.221-0.865-1.895-1.158-0.243-0.105-0.909 0.112-0.954 0.288-0.534 2.106-1.85 1.867-3.417 1.32-0.476-0.167-1.098 0.113-1.656 0.157-2.403 0.186-4.824 0.931-7.182-0.336-0.34-0.182-0.902 0.076-1.362 0.071-0.11 0-0.312-0.239-0.306-0.36 8e-3 -0.143 0.187-0.284 0.311-0.406 0.174-0.17 0.369-0.32 0.554-0.476-0.158-0.058-0.335-0.192-0.471-0.158-0.999 0.245-2.053 0.39-2.968 0.822-1.689 0.799-3.394 0.913-5.214 0.711-2.287-0.251-4.583-1.035-6.895-0.055-0.223 0.094-0.548-0.06-0.827-0.092-3.42-0.396-6.775-1.463-10.282-0.958-0.452 0.067-0.961 0.012-1.396-0.134-1.276-0.421-2.359-0.104-3.468 0.58-1.165 0.721-2.526-0.565-3.811 0.305-0.638 0.432-1.579 0.453-2.396 0.572-0.833 0.124-1.685 0.117-2.523 0.213-5.35 0.612-10.679 0.329-15.999-0.357-0.362-0.047-0.75-0.159-1.054-0.354-2.63-1.688-5.244-0.799-7.857 0.021-0.802 0.251-1.57 0.717-2.383 0.804-1.849 0.195-3.425 0.991-4.861 2.042-0.898 0.656-1.754 0.827-2.562 0.183-0.98-0.78-2.061-0.783-3.19-0.836-1.875-0.089-3.83 0.064-5.598-0.432-1.542-0.434-2.913-0.354-4.393-0.105-0.82 0.14-1.668 0.156-2.504 0.156-1.484 2e-3 -2.983-0.192-4.451-0.048-1.857 0.184-3.686 0.646-5.533 0.947-1.204 0.196-2.418 0.334-3.632 0.46-0.772 0.08-0.992-0.216-0.771-1.028 0.246-0.905 0.572-1.791 0.796-2.701 0.293-1.187 0.578-2.378 0.745-3.582 0.065-0.466-0.206-0.98-0.323-1.472-0.257 0.363-0.568 0.697-0.758 1.093-0.203 0.42-0.293 0.891-0.426 1.343-0.533 1.803-1.172 3.582-1.564 5.413-0.417 1.946-1.429 2.925-3.45 2.991-1.686 0.055-3.354 0.26-4.899 1.115-0.901 0.499-1.73 0.161-2.564-0.507-1.397-1.122-2.992-2.04-4.824-2.124-2.319-0.107-4.62-0.333-6.979-0.096-2.879 0.292-5.427 1.068-7.932 2.548-2.653 1.566-5.477 2.613-8.835 1.956-3.086-0.602-6.302-0.775-9.478-0.624-2.152 0.104-4.295 0.401-6.443 0.607-1.127 0.11-2.403 0.326-3.237-0.49-0.893-0.877-1.624-0.625-2.531-0.28-1.326 0.503-2.668 0.835-4.124 0.505-0.512-0.117-1.103 0.053-1.646 0.149-1.284 0.23-2.585 0.415-3.833 0.775-1.106 0.32-2.194 0.207-2.918-0.507-0.863-0.848-1.421-0.462-2.177-0.021-1.831 1.069-3.617 0.738-5.321-0.326-0.284-0.179-0.693-0.667-0.624-0.82 0.87-1.924-0.521-2.043-1.768-2.518-0.611-0.235-1.052-1.018-1.473-1.621-0.481-0.691-0.837-1.467-1.28-2.188-0.391-0.636-0.956-0.827-1.693-0.608-1.035 0.306-1.351 0.622-1.383 1.807-0.046 1.689 0.022 3.381-0.031 5.071-0.04 1.265-0.605 1.646-1.848 1.394-0.667-0.136-1.243-0.338-1.493-1.098-0.093-0.28-0.483-0.679-0.715-0.663-0.841 0.053-1.712 0.202-2.055 1.173-0.156 0.441-0.212 0.928-0.424 1.339-0.344 0.67-1.015 0.775-1.695 0.762-0.773-0.017-1.197-0.51-1.387-1.185-0.098-0.35-9e-3 -0.746-0.052-1.115-0.071-0.611-0.18-1.22-0.273-1.827-0.433 0.341-0.884 0.665-1.294 1.035-1.505 1.355-2.561 1.175-3.441-0.701-0.436-0.928-0.71-1.931-1.058-2.899-8e-3 0-0.018 2e-3 -0.027 4e-3 -4e-3 0.013-8e-3 0.024-0.012 0.037-1e-3 -0.011 0-0.024 0-0.036-0.347 0.027-0.752 0.16-1.003 0.021-0.225-0.126-0.354-0.592-0.346-0.902 4e-3 -0.179 0.418-0.53 0.552-0.489 0.285 0.088 0.576 0.338 0.732 0.601 0.119 0.199 0.058 0.506 0.065 0.771 4e-3 0 8e-3 -1e-3 0.012-1e-3 0.5-1.583 1.041-3.155 1.454-4.757 0.079-0.31-0.284-0.853-0.595-1.088-0.196-0.148-0.698 0.014-1.013 0.148-0.238 0.104-0.39 0.39-0.59 0.587-0.715 0.703-1.434 1.403-2.151 2.105-0.782-0.634-1.576-1.254-2.342-1.902-0.904-0.77-1.417-0.77-1.997 0.068-0.533 0.767-1.061 1.535-1.574 2.313-0.604 0.923-1.151 1.869-1.326 3.659 0.714-1.04 1.021-1.579 1.419-2.041 0.425-0.493 0.98-0.874 1.399-1.372 1.559-1.849 1.545-1.858 2.712 0.379 0.173 0.333 0.326 0.684 0.55 0.979 0.628 0.834 0.405 1.521-0.201 2.274-0.92 1.143-2.312 1.947-2.557 3.594-0.106 0.714-0.619 1.161-1.352 1.237-0.761 0.075-1.729-0.549-1.964-1.32-0.16-0.529-0.119-1.115-0.249-1.657-0.048-0.202-0.361-0.512-0.495-0.484-0.223 0.046-0.517 0.291-0.575 0.508-0.301 1.118-0.083 2.176 0.491 3.179 0.166 0.292 0.374 0.884 0.299 0.932-0.356 0.232-0.864 0.526-1.207 0.424-0.601-0.18-1.119-0.632-1.672-0.969-0.427 0.955-1.305 1.236-2.212 1.393-0.303 0.053-0.866-0.11-0.939-0.312-0.138-0.379-0.147-0.937 0.049-1.27 0.184-0.311 0.742-0.641 1.065-0.581 0.703 0.128 1.361 0.498 2.038 0.77-0.207-0.312-0.478-0.603-0.605-0.944-0.392-1.038-0.941-2.077-1.03-3.149-0.1-1.228 1.336-1.407 2.02-2.125 0.351-0.368 0.527-0.744-0.036-1.146-0.915-0.656-1.199-1.6-1.187-2.702 3e-3 -0.266-0.392-0.534-0.603-0.801-0.201 0.267-0.547 0.519-0.574 0.801-0.058 0.644 0.123 1.307 0.06 1.947-0.134 1.36-0.588 2.421-2.125 2.925-2.124 0.691-4.155 1.668-6.235 2.497-0.336 0.136-0.724 0.17-1.089 0.184-0.137 5e-3 -0.353-0.163-0.4-0.299-0.048-0.135 0.015-0.405 0.124-0.483 0.761-0.543 1.56-1.03 2.312-1.585 0.156-0.114 0.169-0.424 0.248-0.645-0.264-0.048-0.591-0.221-0.779-0.125-0.656 0.339-1.252 0.79-1.894 1.164-0.558 0.32-1.266 0.958-1.699 0.818-1.266-0.416-2.854 0.399-3.861-0.992-0.072-0.102-0.513-0.06-0.679 0.057-0.372 0.268-0.654 0.866-1.014 0.9-1.92 0.182-3.811 1.093-5.78 0.318-2e-3 18.581-2e-3 37.17-2e-3 55.756h800zm-17.689-57.787c-0.271-0.208-0.529-0.449-0.728-0.724-0.077-0.105-4e-3 -0.476 0.03-0.481 0.229-0.029 0.546-0.077 0.68 0.047 0.243 0.223 0.377 0.564 0.56 0.862-0.267 0.15-0.49 0.335-0.542 0.296zm2.863-5.363c-0.029 0.231-0.015 0.617-0.136 0.952-0.171 0.469 6e-3 1.208-0.746 1.286-0.517 0.055-1.009-1.093-0.758-1.798 0.151-0.425 0.39-0.834 0.661-1.195 0.133-0.177 0.428-0.233 0.649-0.344 0.109 0.231 0.228 0.458 0.325 0.691 0.031 0.08 5e-3 0.182 5e-3 0.408zm3.596-5.845c-0.025-0.087-4e-3 -0.186-4e-3 -0.781 0.283-0.488 0.749-1.379 1.323-2.194 0.123-0.174 0.745-0.201 0.959-0.048 0.241 0.172 0.483 0.735 0.374 0.939-0.485 0.893-1.074 1.734-1.677 2.557-0.132 0.181-0.475 0.206-0.721 0.304-0.086-0.259-0.18-0.516-0.254-0.777zm3.913 12.125c-0.171 0.191-0.896 0.232-0.96 0.115-0.668-1.203-2.296-1.802-2.33-3.343-0.033-1.465-0.222-3 0.765-4.32 0.835-1.118 1.556-2.332 2.454-3.396 0.621-0.732 1.225-0.569 1.871 0.198 0.993 1.177 0.946 2.596 1 3.998 0.049 1.332 0.034 2.6-1.18 3.567-0.367 0.294-0.334 1.048-0.577 1.546-0.285 0.578-0.617 1.159-1.043 1.635zm3.17 2.386c-0.223 0.571-0.701 0.87-1.317 0.755-0.633-0.12-0.541-0.657-0.48-1.104 0.051-0.366 0.125-0.744 0.285-1.07 0.27-0.554 0.725-1.562 0.911-1.52 0.953 0.215 0.576 1.175 0.77 1.924-0.045 0.293-0.039 0.68-0.169 1.015zm-14.301-25.453c0.223-0.921 0.887-1.237 1.703-0.802 0.864 0.463 1.672 1.026 2.505 1.548 0.068-0.085 0.137-0.167 0.207-0.252-0.711-0.838-1.444-1.66-2.129-2.521-0.587-0.736-0.557-1.132 0.168-1.647 3.177-2.271 6.734-3.705 10.495-4.646 1.253-0.312 1.862 0.094 1.953 1.329 0.321 4.327 1.369 8.515 2.291 12.729 0.054 0.251-6e-3 0.747-0.099 0.768-0.312 0.073-0.711 0.082-0.987-0.058-1.153-0.588-2.145-1.469-3.661-1.012-0.907 0.271-1.287-0.531-1.391-1.361-0.118-0.952-0.568-1.101-1.319-0.558-0.641 0.46-1.211 0.237-1.819-0.127-0.259-0.154-0.654-0.082-0.987-0.112 0.059 0.351 0.093 0.708 0.184 1.051 0.048 0.173 0.207 0.312 0.294 0.478 0.652 1.244 0.373 2.355-0.955 2.47-0.892 0.076-1.142 0.358-1.358 0.98-0.278 0.795-0.487 1.614-0.759 2.414-0.047 0.142-0.247 0.332-0.361 0.322-0.147-0.014-0.335-0.179-0.408-0.325-1.105-2.276-2.162-4.571-3.299-6.83-0.641-1.268-0.583-2.543-0.268-3.838zm-3.018 8.063c0.312-0.747 0.764-1.818 1.357-1.975 0.967-0.253 1.168 0.999 1.558 1.682 0.887 1.543 1.699 3.135 2.477 4.739 0.429 0.884 0.251 1.375-0.561 1.912-0.468 0.308-0.963 0.604-1.489 0.788-0.308 0.107-0.812 0.119-1.032-0.064-1.464-1.201-2.916-2.44-2.867-4.64 0.174-0.819 0.241-1.682 0.557-2.442zm-7.621-5.037c0.203 0.285 0.429 0.549 0.587 0.85 0.062 0.121-0.015 0.326-0.057 0.485-0.01 0.031-0.211 0.06-0.226 0.033-0.214-0.37-0.414-0.748-0.604-1.132-7e-3 -0.013 0.125-0.098 0.3-0.236zm-6.373 6.402c0.8 0.311 0.874 1.555 0.134 2.688-0.071 0.108-0.309 0.108-0.471 0.156-0.082-0.899-0.709-0.879-1.367-0.812-6e-3 -0.172-0.071-0.372-7e-3 -0.51 0.577-1.241 1.15-1.74 1.711-1.522zm-3.815-4.577c0.1-0.558 0.577-0.797 1.018-0.504 0.309 0.204 0.61 0.428 0.876 0.686 1.322 1.287 0.965 2.744-0.856 3.326-0.21 0.066-0.722-0.248-0.814-0.491-0.227-0.597-0.289-1.256-0.384-1.724 0.065-0.556 0.094-0.928 0.16-1.293zm-2.672 13.234c0.147-0.482 0.536-1.145 0.937-1.244 0.681-0.168 0.787 0.605 0.949 1.118 0.141 0.44 0.225 0.899 0.33 1.343-0.123 0.393-0.22 0.753-0.35 1.1-0.175 0.466-0.745 0.549-1.157 0.216-0.837-0.682-0.996-1.591-0.709-2.533zm-4.849 6.112c0.075-0.212 0.522-0.51 0.592-0.465 0.252 0.176 0.42 0.477 0.599 0.703-0.168 0.776-0.246 1.436-0.468 2.041-0.105 0.285-0.483 0.471-0.737 0.7-0.189-0.28-0.562-0.581-0.532-0.833 0.088-0.73 0.304-1.451 0.546-2.146zm-5.522 5.397c0.199-0.229 0.688-0.33 1.022-0.292 0.31 0.035 0.728 0.271 0.844 0.53 0.124 0.274 0.073 0.884-0.116 1.003-0.991 0.627-2.049 1.147-3.089 1.692-0.062 0.034-0.177-0.034-0.382-0.083-0.06-0.161-0.249-0.559-0.21-0.581 0.902-0.547 1.28-1.521 1.931-2.269zm-13.265-6.327c0.333-0.462 1.063-0.696 1.666-0.872 0.259-0.076 0.852 0.181 0.916 0.398 0.261 0.877 0.405 1.793 0.511 2.704 0.022 0.197-0.246 0.513-0.46 0.639-0.636 0.374-1.296 0.726-1.98 0.998-0.576 0.232-0.883-0.103-0.862-0.675 0.018-0.456 0.132-0.909 0.203-1.363-0.08-8e-3 -0.16-0.019-0.241-0.027 0.064-0.613-0.066-1.368 0.247-1.802zm-4.594 7.385c-0.469 0.245-1.101-0.105-0.981-0.52 0.081-0.279 0.395-0.603 0.669-0.683 0.258-0.076 0.605 0.14 1.179 0.303-0.414 0.442-0.595 0.758-0.867 0.9zm-2.233-4.745c1.062-0.542 2.174-0.996 3.296-1.398 0.16-0.057 0.597 0.343 0.725 0.615 0.146 0.315 0.095 0.724 0.119 0.984-0.034 0.387-0.04 0.667-0.091 0.938-0.094 0.503-0.359 0.889-0.925 0.79-0.999-0.175-2-0.368-2.974-0.642-0.625-0.176-0.727-0.993-0.15-1.287zm-7.021 9.354c-0.342-0.213-0.643-0.496-0.957-0.753 0.068-0.124 0.138-0.248 0.207-0.372 0.271 0.102 0.584 0.149 0.804 0.317 0.191 0.149 0.278 0.435 0.412 0.658-0.158 0.056-0.377 0.208-0.466 0.15zm3.772-5.438c0.276 0.182 0.446 0.531 0.578 0.703-0.172 1.358-1.38 2.215-2.432 1.895-0.599-0.185-0.769-0.79-0.327-1.227 0.457-0.455 0.909-0.923 1.417-1.315 0.177-0.136 0.589-0.171 0.764-0.056zm-10.601-12.234c1.791-1.523 2.074-1.567 3.395 0.443 1.083 1.644 2.169 3.285 3.225 4.946 0.123 0.194 0.07 0.497 0.099 0.749-0.246-0.066-0.521-0.083-0.731-0.206-0.482-0.289-0.908-0.676-1.402-0.939-0.804-0.429-1.643-0.792-2.468-1.182-0.134 1.333 1.142 1.523 1.818 2.169 1.084 1.03 2.284 1.939 3.44 2.896 1.789 1.483 1.791 1.481-0.146 2.981-0.222 0.172-0.424 0.394-0.675 0.499-0.329 0.138-0.828 0.374-1.03 0.236-1.535-1.045-1.935 0.155-2.46 1.162-0.259 0.498-0.526 0.994-0.812 1.478-0.639 1.078-1.397 1.101-2.131 0.061-0.844-1.196-1.16-2.545-1.107-3.999 0.205-0.771 0.301-1.465-0.795-1.679-0.156-0.031-0.348-0.672-0.271-0.966 0.245-0.943 0.096-1.791-0.153-2.723-0.658-2.445 0.316-4.318 2.204-5.926zm-8.79 9.957c0.398-0.833 0.886-1.631 1.395-2.407 0.337-0.512 0.647-1.382 1.403-1.018 0.479 0.231 0.728 0.988 1.019 1.541 0.12 0.23 0.203 0.603 0.1 0.804-0.419 0.815-0.358 1.543 0.077 2.342 0.114 0.209-0.205 0.656-0.334 0.997 0.015-5e-3 0.026-0.01 0.041-0.015-0.011 0.015-0.022 0.028-0.032 0.042 0.698 0.826 1.028 1.759 0.578 2.798-0.099 0.228-0.576 0.482-0.81 0.428-1.219-0.29-1.478-1-0.771-1.962 0.318-0.433 0.665-0.845 1.002-1.264-5e-3 -6e-3 -9e-3 -0.012-0.013-0.017 1e-3 -3e-3 3e-3 -8e-3 4e-3 -0.011-0.687 0.24-1.372 0.484-2.061 0.723-1.82 0.628-1.925 0.571-1.944-1.422-4e-3 -0.519 0.122-1.087 0.346-1.559zm-20.83-3.297c0.087-0.352 0.217-0.703 0.383-1.025 0.308-0.598 0.896-0.733 1.351-0.325 0.204 0.183 0.407 0.385 0.546 0.618 0.269 0.452 0.491 0.932 0.732 1.402-0.495 0.163-0.988 0.329-1.294 0.43-0.497-0.053-0.776-0.055-1.044-0.114-0.511-0.117-0.815-0.429-0.674-0.986zm-17.346 0.917c-0.575 0.228-1.15 0.58-1.741 0.61-0.651 0.035-0.923-0.573-0.873-1.173 0.037-0.442 0.224-0.885 0.396-1.302 0.054-0.126 0.283-0.25 0.435-0.252 0.537-0.013 1.804 1.297 1.854 1.875-0.023 0.082-0.023 0.223-0.071 0.242zm3.934 4.799c-0.074-0.149-0.148-0.298-0.275-0.55 0.186-0.105 0.375-0.218 0.565-0.327 0.078 0.148 0.258 0.363 0.212 0.435-0.112 0.181-0.327 0.298-0.502 0.442zm4.836-8.349c0.11-0.196 0.424-0.276 0.645-0.413 0.139 0.306 0.436 0.641 0.385 0.912-0.135 0.729-0.379 1.445-0.653 2.142-0.318 0.808-1.021 1.006-1.824 0.577-0.709-0.375-1.206-1.962-0.817-2.703 0.046-0.087 0.301-0.068 0.483-0.104 0.877 1.148 1.316 0.421 1.781-0.411zm-7.696-6.578c1.222 0.65 0.523 1.816 0.709 2.738 0.11 0.541 0.038 1.12 0.056 1.681 0.018 0.59 0.129 0.364 1.116 0.834 0.969 0.458 1.109 0.329 1.032-0.959-0.157-0.467-0.269-1.372-0.729-2.033-0.914-1.308-0.51-2.691-0.494-4.057 4e-3 -0.204 0.289-0.523 0.493-0.569 0.208-0.049 0.573 0.104 0.706 0.287 1.206 1.661 2.424 3.319 3.518 5.056 0.222 0.353 0.12 1.172-0.156 1.528-0.674 0.877-1.536 1.606-2.325 2.394-0.253 0.256-0.563 0.472-0.759 0.763-0.367 0.554 0.402 1.651-0.708 1.754-0.234 0.023-0.521-1.061-0.877-1.566-0.183-0.259-0.56-0.405-0.878-0.538-1.885-0.783-2.8-2.554-2.272-4.436 0.05-0.18 0.093-0.37 0.185-0.53 0.451-0.788 0.92-1.565 1.383-2.347zm-7.069-8.403c0.296-2.116 0.662-4.226 1.021-6.336 0.025-0.146 0.239-0.389 0.325-0.37 0.247 0.046 0.558 0.14 0.697 0.326 0.448 0.592 0.855 1.222 1.233 1.861 0.854 1.442 1.693 2.894 2.512 4.354 1.108 1.978 0.706 3.725-0.854 5.279-2e-3 5e-3 -2e-3 0.01-2e-3 0.016 0.01 4e-3 0.026 0.015 0.036 0.02-0.013 1e-3 -0.025 1e-3 -0.038 2e-3 -0.072 0.531-0.062 1.093-0.252 1.579-0.235 0.608 0.08 1.633-0.905 1.711-0.431 0.034-1.034-2.143-0.771-2.702 0.098-0.207 0.375-0.407 0.605-0.46 0.428-0.099 0.879-0.095 1.322-0.128 0-7e-3 1e-3 -0.015 2e-3 -0.021-0.772-0.35-3.416-2.447-4.154-3.142-0.604-0.568-0.882-1.232-0.777-1.989zm-29.315 0.395c6e-3 -0.101 0.239-0.192 0.366-0.288 0.145 0.105 0.324 0.183 0.425 0.32 1.71 2.32 3.414 4.649 5.108 6.981 0.399 0.548 0.71 1.146 0.128 1.753-0.486 0.513-1.556 0.663-2.021 0.111-0.574-0.68-1.186-1.111-2.037-1.296-0.242-0.053-0.569-0.282-0.632-0.497-0.668-2.319-1.466-4.616-1.337-7.084zm-63.881 15.874c-0.133-0.252-0.462-0.605-0.479-0.974-0.031-0.696 0.509-0.932 1.133-0.946 0.535-0.01 0.923 0.223 0.934 0.795 0.013 0.662-0.603 1.152-1.588 1.125zm3.101-3.95c-0.402 0.03-1.003-0.085-1.197-0.365-0.359-0.517-0.571-1.181-0.676-1.812-0.094-0.56-0.739-1.382 0.101-1.659 0.406-0.135 1.248 0.439 1.604 0.911 0.421 0.56 0.53 1.352 0.814 2.148-0.23 0.295-0.422 0.761-0.646 0.777zm5.05 1.723c-0.478 0.384-1.111 0.567-1.455 0.732-0.481-0.082-0.686-0.073-0.841-0.155-0.144-0.077-0.311-0.242-0.33-0.387-0.017-0.136 0.11-0.337 0.235-0.434 0.137-0.106 0.34-0.151 0.521-0.175 1.317-0.169 2.211 0.147 1.87 0.419zm-5.915-11.152c-0.019-0.01-0.029-0.023-0.048-0.035h0.041c-0.78-1.507-0.194-2.88 0.516-4.188 0.288-0.533 0.569-0.151 0.727 0.223 0.115-0.078 0.318-0.143 0.333-0.234 0.292-1.936 0.495-3.886 0.862-5.806 0.259-1.364 0.67-2.709 1.144-4.015 0.167-0.465 0.719-0.79 1.092-1.18 1.257-1.314 2.511-2.627 3.766-3.94-1e-3 -1e-3 -1e-3 -2e-3 -2e-3 -2e-3 4e-3 -9e-3 4e-3 -0.019 7e-3 -0.03-0.254 0.081-0.522 0.134-0.755 0.256-0.649 0.342-1.282 0.716-1.92 1.076-0.457-0.893 0.379-1.508 0.513-2.279 0.076-0.431 0.399-0.832 0.656-1.217 0.289-0.438 0.791-0.365 1.14 0.101 0.472 0.636 0.645 1.309 0.366 2.063 0.012-2e-3 0.023-5e-3 0.034-9e-3 -0.013 0.014-0.026 0.027-0.039 0.041 1.104 0.534 1.628 1.493 1.973 2.606 0.391 1.263 1.151 2.296 1.88 3.396 1.282 1.938 2.248 4.1 3.198 6.234 0.274 0.617 0.113 1.471 0.034 2.204-0.304 2.791-0.32 5.581 0.116 8.396 0.275-1.83 0.539-3.664 0.848-5.488 0.034-0.198 0.322-0.388 0.535-0.502 0.061-0.032 0.332 0.174 0.397 0.319 0.306 0.682 0.669 1.359 0.836 2.078 0.53 2.281 0.992 4.58 1.447 6.877 0.038 0.192-0.257 0.632-0.265 0.63-1.103-0.444-2.807 0.322-3.217-1.566-0.023-0.112-0.501-0.277-0.618-0.197-1.139 0.771-2.239 1.599-3.367 2.388-0.297 0.207-0.64 0.445-0.98 0.481-1.388 0.149-2.787 0.309-4.179 0.287-0.702-0.01-1.502-0.238-2.074-0.634-0.912-0.633-1.741-1.43-2.464-2.275-0.396-0.463-0.677-1.166-0.702-1.771-0.042-1.008 0.123-2.031 0.274-3.039 0.191-1.282-0.271-1.683-1.592-1.321-0.165 0.047-0.347 0.033-0.52 0.039 4e-3 0.01 7e-3 0.021 0.012 0.031-2e-3 0-3e-3 2e-3 -5e-3 2e-3 1.442 0.895 1.158 2.335 1.109 3.685-0.027 0.776-0.43 0.938-1.087 0.485-2.176-1.496-2.181-2.362-0.022-4.17zm-2.809 7.62c0.091-0.246 0.235-0.474 0.355-0.708 0.209 0.145 0.501 0.246 0.609 0.446 0.22 0.403 0.412 0.851 0.475 1.304 0.043 0.299-0.155 0.633-0.247 0.952-0.375-0.206-0.8-0.362-1.104-0.646-0.163-0.151-0.122-0.522-0.161-0.729 0.026-0.253 0.011-0.45 0.073-0.619zm-45.335 7.547c0.261-0.305 0.652-0.891 1.041-0.229 0.162 0.277 0.014 0.944-0.235 1.205-0.422 0.443-1.034 0.705-1.559 1.041-0.169-0.224-0.372-0.416-0.343-0.462 0.341-0.535 0.681-1.077 1.096-1.555zm-3.978-8.136c0.195-0.037 0.438 0.164 1 0.398-0.648 0.407-1.037 0.686-1.46 0.897-0.112 0.055-0.392-0.056-0.483-0.175-0.229-0.298 0.322-0.995 0.943-1.12zm-1.337 3.584c0.083-0.202 0.388-0.312 0.596-0.462 0.068 0.234 0.214 0.478 0.188 0.701-0.03 0.257-0.211 0.497-0.544 1.214-0.177-0.967-0.322-1.258-0.24-1.453zm-4.072-7.327c0.412-0.962 0.656-1.842 0.416-2.884-0.062-0.264 0.297-0.627 0.463-0.945 0.29 0.203 0.655 0.353 0.857 0.625 0.503 0.671 0.937 1.395 1.383 2.106 0.788 1.258 0.54 2.779-0.64 3.716-0.585 0.465-1.215 0.873-1.853 1.266-0.216 0.133-0.516 0.131-0.775 0.191-0.045-0.259-0.125-0.516-0.127-0.772-2e-3 -0.276 0.069-0.556 0.107-0.833-0.049-7e-3 -0.098-0.012-0.147-0.019 0.091-0.822 4e-3 -1.722 0.316-2.451zm-70.649 17.871c-0.016 0.046-0.353 0.019-0.525-0.029-1.405-0.394-1.392-1.569-1.487-2.647 0.092-0.211 0.186-0.53 0.235-0.523 0.231 0.033 0.556 0.088 0.657 0.253 0.442 0.714 0.844 1.457 1.201 2.217 0.092 0.193-5e-3 0.5-0.081 0.729zm4.732 2.49c-0.144 0.058-0.401 0.01-0.519-0.096-0.273-0.241-0.549-0.512-0.721-0.827-1.116-2.058-2.19-4.137-3.313-6.188-0.449-0.817-0.501-1.536 0.059-2.345 0.851-1.229 1.594-2.535 2.431-3.778 0.258-0.383 0.713-0.335 0.812 0.139 0.318 1.54 0.562 3.097 0.834 4.647-0.088 0.014-0.178 0.027-0.266 0.041 0.121 2.236 0.216 4.478 0.387 6.709 0.033 0.434 0.389 0.833 0.536 1.27 0.037 0.112-0.116 0.38-0.24 0.428zm3.43-3.758c-0.379-2.956-0.781-5.907-1.112-8.866-0.069-0.633 0.104-1.298 0.211-1.938 0.021-0.126 0.26-0.217 0.397-0.322 0.047 0.064 0.107 0.124 0.139 0.196 0.033 0.084 0.05 0.179 0.056 0.27 0.223 3.541 0.444 7.08 0.664 10.618-0.119 0.014-0.238 0.028-0.355 0.042zm1.273-9.175c-7e-3 -0.151 0.099-0.391 0.219-0.445 0.129-0.06 0.378-7e-3 0.504 0.09 0.677 0.521 1.314 1.095 1.052 2.074-0.326 1.228-0.697 2.441-1.051 3.66-0.134-0.044-0.269-0.085-0.402-0.126-0.11-1.752-0.228-3.501-0.322-5.253zm5.113 11.655c-0.833 0.595-1.634 1.232-2.446 1.857-0.628 0.481-1.296 0.321-1.808-0.09-0.297-0.238-0.532-0.822-0.466-1.19 0.347-1.924 0.783-3.837 1.227-5.742 0.18-0.773 0.588-1.384 1.506-1.404-0.19-0.423-0.438-0.829-0.554-1.272-0.062-0.237 0.095-0.532 0.152-0.801 0.22 0.112 0.497 0.177 0.643 0.349 0.315 0.374 0.552 0.794 1.004 0.128 0.032-0.048 0.53 0.085 0.638 0.248 0.253 0.387 0.42 0.834 0.586 1.272 0.228 0.602 0.04 0.771-0.694 0.645-0.46-0.077-0.917-0.169-1.376-0.257 0.917 1.515 1.762 3.061 2.143 4.814 0.132 0.618-0.03 1.069-0.555 1.443zm9.481-7.577c-0.123 0.112-0.327 0.14-0.534 0.225-0.848-0.59-1.432-1.391-1.658-2.419-0.023-0.104 0.372-0.449 0.523-0.419 0.535 0.103 1.091 0.247 1.564 0.513 0.783 0.435 0.812 1.458 0.105 2.1zm2.677-10.64c-0.072 0.27-0.102 0.642-0.285 0.774-0.987 0.705-0.615 1.621-0.543 2.549 0.086 1.111 0.031 2.235-0.021 3.352-0.034 0.688-0.449 0.982-1.145 0.808-0.091-0.022-0.184-0.044-0.268-0.08-3.47-1.545-3.287-0.592-3.297-4.478v-1.122h-0.015c0-0.843 0.048-1.687-0.016-2.525-0.051-0.692 0.188-1.558-0.8-1.88-0.079-0.025-0.185-0.107-0.197-0.179-0.378-2.111-1.029-4.229-1.027-6.343 3e-3 -1.609 0.686-3.315 2.009-4.495 1.534-1.367 3.138-2.663 4.725-3.972 0.477-0.393 0.937-0.184 1.135 0.299 0.742 1.821 1.421 3.652 1.412 5.674-0.018 3.957-0.642 7.815-1.667 11.618zm2.155-15.986c-0.015 0.086-0.106 0.237-0.123 0.232-0.151-0.046-0.391-0.092-0.424-0.195-0.271-0.871-0.533-1.744-0.722-2.635-0.029-0.142 0.312-0.479 0.516-0.515 0.179-0.03 0.544 0.201 0.592 0.38 0.164 0.618 0.227 1.265 0.298 1.711-0.062 0.474-0.089 0.749-0.137 1.022zm3.344 22.066c-0.055 0.103-0.342 0.161-0.492 0.121-0.148-0.037-0.386-0.233-0.373-0.335 0.155-1.162 0.351-2.318 0.624-4.043 0.344 1.381 0.625 2.184 0.709 3.005 0.04 0.403-0.263 0.852-0.468 1.252zm6.876 0.091c-0.376 0.226 0.069 1.252-0.839 0.999-0.094-0.025-2e-3 -0.835 0.059-1.275 0.11-0.807 0.262-1.609 0.396-2.413-0.046-9e-3 -0.093-0.019-0.139-0.025 0-0.186-0.046-0.388 9e-3 -0.557 0.147-0.453-0.259-1.277 0.603-1.238 0.287 0.014 0.737 0.654 0.775 1.042 0.122 1.228 0.608 2.591-0.864 3.467zm0.095-8.243c-0.021-0.131 0.317-0.32 0.49-0.484 0.122 0.232 0.246 0.464 0.397 0.749-0.166 0.218-0.312 0.411-0.46 0.601-0.152-0.288-0.375-0.562-0.427-0.866zm4.925 10.213c-0.035 0.143-0.258 0.239-0.394 0.359-0.153-0.07-0.397-0.104-0.443-0.217-0.138-0.34-0.268-0.711-0.271-1.07-4e-3 -0.474-0.611-1.186 0.241-1.344 0.246-0.046 0.733 0.738 0.956 1.214 0.133 0.282-3e-3 0.714-0.089 1.058zm8.068-0.586c-0.15 0-0.3-0.147-0.451-0.229 0.206-0.319 0.411-0.638 0.608-0.943 0.301 0.16 0.511 0.202 0.574 0.319 0.187 0.347-0.245 0.857-0.731 0.853zm3.517-1.108c0.1-0.29 0.351-0.525 0.618-0.887 0.274 0.37 0.599 0.677 0.547 0.768-0.146 0.252-0.425 0.473-0.7 0.588-0.083 0.034-0.499-0.368-0.465-0.469zm-0.266-12.819c-8e-3 -0.021 0.33-0.25 0.364-0.22 0.608 0.537 1.299 1.03 1.732 1.689 0.165 0.25-0.271 0.896-0.425 1.34-0.296-0.068-0.437-0.063-0.459-0.111-0.417-0.893-0.826-1.791-1.212-2.698zm2.274 16.483c-0.079 0.012-0.169-0.044-0.339-0.092-0.173-0.036-0.437-0.08-0.689-0.158-0.146-0.043-0.276-0.144-0.412-0.22 0.16-0.055 0.325-0.162 0.484-0.158 0.349 0.012 0.705 0.051 1.041 0.14 0.142 0.037 0.243 0.229 0.362 0.354-0.148 0.045-0.295 0.108-0.447 0.134zm3.427-3.684c-0.209-0.087-0.593-0.124-0.669-0.299-0.323-0.739-0.588-1.508-0.792-2.289-0.038-0.145 0.263-0.47 0.473-0.562 0.205-0.089 0.687-0.048 0.716 0.044 0.299 0.925 0.536 1.868 0.756 2.815 0.011 0.052-0.28 0.172-0.484 0.291zm-2.005-6.694c0.101-0.503 0.046-1.147 0.343-1.472 0.31-0.339 0.95-0.418 1.462-0.503 0.137-0.022 0.337 0.354 0.633 0.691-0.408 0.401-0.724 0.852-1.151 1.086-0.359 0.198-0.854 0.143-1.287 0.198zm3.574 10.617c-0.367-0.289-0.688-0.469-0.898-0.734-0.131-0.172-0.098-0.472-0.14-0.714 0.324-0.044 0.729-0.223 0.949-0.094 0.257 0.15 0.416 0.561 0.487 0.886 0.036 0.16-0.222 0.382-0.398 0.656zm2.347-23.133c0.231-0.378 0.504-0.742 0.803-1.069 0.063-0.067 0.447 0.021 0.451 0.057 0.021 0.24 0.064 0.554-0.063 0.717-0.264 0.335-0.628 0.591-1.007 0.93-0.102-0.33-0.241-0.541-0.184-0.635zm0.484 4.201c0.446-0.941 1.146-1.678 2.03-2.147 0.457-0.242 1.7 1.587 1.803 2.909 0.102 1.297-0.026 2.614-0.084 3.922-7e-3 0.13-0.214 0.322-0.356 0.354-0.131 0.03-0.383-0.08-0.441-0.196-0.331-0.655-0.616-1.326-1.077-2.352-0.16 0.98-0.26 1.6-0.361 2.225-0.581-0.634-0.297-1.853-1.562-2.098-0.285-0.055-0.468-1.093-0.518-1.692-0.026-0.289 0.411-0.594 0.566-0.925zm-15.719-231.61c0.026-0.08 0.104-0.183 0.176-0.198 0.069-0.015 0.205 0.048 0.235 0.113 0.309 0.647 0.602 1.302 0.894 1.946-0.244 0.136-0.423 0.31-0.511 0.272-0.572-0.246-1.014-1.47-0.794-2.133zm-49.189-142.92c0.172-0.354 0.943-0.604 1.427-0.583 1.021 0.045 2.029 0.328 3.05 0.463 3.06 0.41 6.114 0.875 9.188 1.164 2.102 0.197 3.257 1.262 3.62 3.252 0.251 1.38 0.4 2.78 0.567 3.977 0 0.29 0.021 0.39-3e-3 0.476-0.372 1.305 0.085 2.893-1.152 3.883-0.483 0.386-3.894-0.988-4.461-1.894-0.712-1.14-1.782-1.615-2.89-2.108-1.325-0.59-2.313-1.45-3.03-2.777-0.56-1.037-1.516-1.865-2.317-2.767-0.473-0.532-1.026-0.408-1.49-0.012-0.709 0.607-1.337 1.311-2.061 1.898-0.246 0.2-0.744 0.32-1.005 0.204-0.258-0.117-0.465-0.562-0.515-0.889-0.243-1.564 0.424-2.951 1.072-4.287zm-47.88 318.87c0.065-1.104 0.517-1.283 1.453-0.802 0.985 0.505 1.998 0.969 3.024 1.387 1.472 0.602 2.959 1.168 4.452 1.71 4.566 1.662 9.059 3.604 14.036 3.74 0.462 0.014 0.914 0.211 1.377 0.269 2.419 0.305 4.834 0.656 7.264 0.873 4.296 0.378 8.598 0.699 12.901 0.985 3.765 0.251 7.507-0.011 11.223-0.684 2.494-0.452 4.997-0.737 7.539-0.418 0.549 0.069 1.293 0.219 1.645-0.057 1.302-1.018 2.598-0.622 3.997-0.391 0.986 0.162 2.043-0.032 3.061-0.136 1.109-0.112 2.213-0.447 3.314-0.432 2.733 0.037 5.366-0.347 7.854-1.496 0.916-0.424 1.66 0.514 2.346 0.313 0.718-0.206 1.216-1.083 1.905-1.505 0.352-0.214 0.977-0.219 1.375-0.06 1.197 0.483 2.56 0.861 3.473 1.695 2.78 2.549 5.224 5.283 5.893 9.321 0.971 5.855 3.065 11.401 5.577 16.776 0.794 1.698 1.593 3.411 2.582 4.995 2.104 3.361 3.515 7.055 5.314 10.559 0.807 1.571 0.777 2.834-0.665 3.963-0.203 0.162-0.266 0.488-0.438 0.701-0.858 1.051-1.347 0.98-1.842-0.236-0.567-1.392-1.144-2.778-1.742-4.157-0.057-0.131-0.287-0.184-0.48-0.302-0.136 2.792 0.889 5.35 1.416 7.991 0.108 0.542 0.261 1.116 0.181 1.644-0.165 1.095-1.216 1.415-2.038 0.666-0.556-0.505-1.071-1.056-1.613-1.577-0.565-0.539-0.971-1.104-0.799-1.974 0.12-0.609-0.214-0.924-0.8-0.552-0.922 0.581-1.411-0.156-1.927-0.624-0.534-0.487-1.115-1.049-1.348-1.696-0.143-0.4 0.346-1.013 0.511-1.543 0.079-0.247 0.066-0.523 0.094-0.787-0.245 0.034-0.504 0.029-0.731 0.109-0.262 0.093-0.485 0.29-0.745 0.386-1.081 0.391-2.129 0.586-3-0.481-0.229-0.28-0.57-0.5-0.906-0.654-0.205-0.098-0.492-0.012-0.742-7e-3 0.024 0.175-3e-3 0.381 0.079 0.519 0.24 0.402 0.465 0.843 0.804 1.147 1.52 1.38 1.995 2.892 0.781 4.717-0.072 0.107-0.021 0.394 0.079 0.485 0.076 0.071 0.319-0.016 0.48-0.058 0.086-0.021 0.162-0.091 0.235-0.148 0.494-0.391 1.218-1.207 1.435-1.09 0.597 0.322 1.055 0.991 1.429 1.608 0.679 1.122 0.718 2.297 0.04 3.478-0.374 0.652-0.657 1.353-1.006 2.021-0.352 0.669-0.943 0.433-1.487 0.351 1.03 2.243 0.295 4.171-1.08 5.976-0.091 0.119-0.336 0.202-0.485 0.175-0.129-0.023-0.305-0.218-0.322-0.355-0.253-1.993 0.152-3.901 0.85-5.752 0.082-0.218 0.428-0.332 0.649-0.498-0.02-0.093-0.019-0.193-0.06-0.273-0.168-0.32-0.35-0.637-0.526-0.955-0.252 0.207-0.637 0.366-0.732 0.63-0.733 2.031-1.418 4.076-2.1 6.125-0.208 0.621-0.34 1.271-0.566 1.887-0.078 0.211-0.343 0.495-0.521 0.493-0.232-3e-3 -0.603-0.209-0.665-0.408-0.16-0.499-0.342-1.083-0.218-1.557 0.187-0.712 0.687-1.336 0.941-2.039 0.637-1.758 1.222-3.534 1.798-5.314 0.074-0.229-0.031-0.516-0.052-0.778-0.207 0.154-0.504 0.263-0.605 0.467-0.67 1.343-1.286 2.713-1.943 4.063-0.246 0.505-0.525 0.998-0.855 1.446-0.074 0.101-0.599 0.057-0.629-0.023-0.571-1.583-1.19-3.159-1.615-4.786-0.711-2.721-1.316-5.472-1.914-8.219-0.257-1.187-0.364-2.405-0.585-3.602-0.036-0.197-0.308-0.351-0.47-0.525-0.152 0.213-0.428 0.422-0.437 0.64-0.028 0.744 0.017 1.495 0.073 2.238 0.07 0.923 0.181 1.844 0.125 2.778-0.643-2.349-1.217-4.721-1.949-7.041-0.569-1.802-0.548-3.494 0.318-5.177 0.17-0.333 0.285-0.697 0.375-1.061 0.025-0.099-0.123-0.248-0.209-0.357-0.01-0.012-0.174 0.063-0.225 0.13-0.385 0.516-0.804 1.502-1.129 1.47-0.99-0.097-0.913-1.247-1.264-1.954-1.256-2.531-2.138-5.173-2.595-7.997-0.642-3.979-1.546-7.916-2.272-11.884-0.237-1.287-0.24-2.615-0.429-3.913-0.045-0.31-0.406-0.571-0.623-0.856-0.209 0.255-0.524 0.476-0.61 0.768-0.89 2.994-0.597 5.968 0.442 8.852 2.628 7.291 3.885 14.852 4.843 22.512 0.598 4.787 0.433 9.556 0.367 14.341-0.026 1.899-0.511 3.677-1.759 5.582 0.079-1.681 0.158-3.017 0.199-4.354 0.054-1.784-0.155-3.533-0.388-5.31-0.441-3.344-0.608-6.729-0.695-10.104-0.212-8.214-1.391-16.237-4.414-24.449 0 0.938-0.053 1.398 8e-3 1.842 0.777 5.767 1.571 11.528 2.363 17.291 0.038 0.279 0.092 0.558 0.148 0.833 0.295 1.398 0.152 2.457-1.377 3.235-1.485 0.751-2.741 1.953-4.122 2.925-0.189 0.133-0.61 0.194-0.746 0.077-0.165-0.138-0.233-0.521-0.182-0.765 0.385-1.837 0.815-3.662 1.221-5.493 0.072-0.326 0.095-0.664-0.256-1.122-0.585 1.258-1.207 2.5-1.745 3.778-0.656 1.557-1.214 3.153-1.87 4.711-0.207 0.493-0.502 1.168-0.913 1.311-0.765 0.266-0.907 0.721-1.108 1.395-0.203 0.683-0.736 1.265-1.124 1.89-0.447 0.724 0.029 0.659 0.547 0.751 0.637 0.112 0.522 0.71 0.409 1.134-0.438 1.633-0.949 3.244-1.384 4.875-0.29 1.083-0.495 2.185-0.738 3.279 0.562-1.069 1.118-2.144 1.695-3.206 0.082-0.149 0.351-0.371 0.396-0.344 0.207 0.132 0.492 0.32 0.523 0.522 0.447 2.862 0.846 5.733 1.283 8.6 0.141 0.92 0.358 1.83 0.54 2.746 0.217 1.088 0.294 2.171-0.131 3.38-0.637-0.716-1.143-1.367-1.737-1.924-0.31-0.288-0.914-0.667-1.15-0.545-0.572 0.293-0.828 0.16-1.066-0.327-0.907-1.856-1.843-3.707-1.321-5.885-0.729 0.509-1.154 1.193-1.342 2.07-0.115 0.541-0.505 0.439-0.805 0.142-2.179-2.159-3.47-4.607-2.62-7.808 0.092-0.349-0.248-0.82-0.416-1.226-0.065-0.156-0.209-0.282-0.316-0.424-0.085 0.131-0.184 0.254-0.254 0.392-0.042 0.08-0.041 0.181-0.062 0.272-0.216 0.907-0.275 2.028-1.389 2.239-0.946 0.177-1.449-0.762-1.996-1.371-3.466-3.85-7.537-7.043-11.373-10.49-1.01-0.909-2.107-1.723-3.169-2.573 0.448 0.752 0.825 1.568 1.39 2.22 3.395 3.899 6.826 7.768 10.276 11.618 0.714 0.797 1.188 1.635 1.408 2.692 0.269 1.288 0.127 2.349-0.789 3.387-1.118 1.262-2.062 2.678-3.104 4.012-0.364 0.467-0.936 0.352-1.008-0.239-0.177-1.456-0.972-2.611-1.63-3.853-0.611-1.157-1.159-2.373-1.536-3.621-0.795-2.633-2.426-4.639-4.474-6.358-0.228-0.19-0.63-0.172-0.95-0.25 0.043 0.259 0.011 0.565 0.145 0.769 0.773 1.176 1.534 2.367 2.399 3.476 1.522 1.951 2.729 3.975 3.06 6.53 0.214 1.651 0.857 3.271 1.494 4.831 0.44 1.071 0.494 1.967-0.199 2.896-0.167 0.225-0.277 0.496-0.453 0.712-0.528 0.639-1.073 1.261-1.611 1.889-1.03-0.415-2.143-0.702-3.065-1.287-0.771-0.488-0.817-1.4-0.459-2.291 0.075-0.188-0.121-0.487-0.192-0.735-0.238 0.117-0.529 0.182-0.697 0.361-0.33 0.352-0.678 0.429-0.854-0.024-0.305-0.781-0.511-1.605-0.721-2.421-1.032-4.024-2.525-7.872-4.438-11.556-0.257-0.494-0.608-0.938-0.929-1.396-0.036-0.051-0.171-0.086-0.227-0.061-0.074 0.035-0.165 0.146-0.158 0.213 0.027 0.277 0.046 0.566 0.146 0.822 0.719 1.838 1.496 3.654 2.178 5.505 0.976 2.642 1.913 5.3 2.815 7.97 0.371 1.098 0.23 1.222-1.03 1.205-2.629-0.034-5.256-0.08-7.883-0.121-1.891-0.027-3.764 0.039-5.527 0.849-0.735 0.34-1.483 0.396-2.074-0.262-2.078-2.312-4.907-2.66-7.726-2.85-3.137-0.206-6.062-1.243-9.064-1.983-1.012-0.249-1.359-0.905-1.015-1.968 0.599-1.849 1.283-3.674 2.071-5.448 0.184-0.411 0.44-0.646 0.327-1.188-0.208-0.989-0.33-2.022-0.312-3.032 0.051-2.822 0.027-5.608-0.705-8.384-0.376-1.428-0.318-2.973-0.41-4.469-0.143-2.319-0.291-4.641-0.354-6.964-0.102-3.815-0.135-7.623-0.748-11.413-0.25-1.552-0.027-3.175-0.101-4.764-0.258-5.441-0.604-10.879-0.806-16.322-0.081-2.146 0.094-4.308 0.22-6.458zm-14.789-231.18c-0.963 1.026-1.936 2.06-3.018 2.954-1.738 1.436-3.541 2.793-5.357 4.128-1.333 0.978-2.631 1.04-4.155 0.093-4.881-3.031-4.914-2.978-8.193-7.48-0.438-0.601-0.298-0.895 0.375-1.263 2.35-1.285 4.881-1.85 7.508-2.085 3.273-0.294 6.549-0.56 9.824-0.839 0.188-0.016 0.372-0.049 0.798-0.105 0.252 0.282 0.785 0.617 0.896 1.058 0.25 0.999 0.234 2.06 1.354 2.624 0.121 0.061 0.134 0.739-0.032 0.915zm-21.79-6.801c-0.253-0.139-0.305-0.783-0.309-1.198-6e-3 -0.552 0.418-0.904 0.919-0.791 3.42 0.771 7.021 0.57 10.53 1.954-3.107 0.798-6.086 0.757-9.056 0.676-0.709-0.02-1.457-0.296-2.084-0.641zm-13.081-28.148c0.218-0.195 0.74-0.23 1.043-0.12 0.967 0.351 1.902 0.801 2.846 1.218 6.438 2.847 12.905 5.629 19.301 8.564 4.351 1.997 8.604 4.2 12.893 6.329 0.411 0.204 0.863 0.464 1.111 0.825 0.227 0.332 0.375 0.898 0.251 1.25-0.251 0.695-0.719 1.31-1.086 1.963-0.78 1.385-1.607 2.747-2.316 4.167-0.811 1.625-1.039 1.872-2.804 1.572-4.625-0.787-9.242-1.634-13.856-2.482-0.916-0.168-1.832-0.394-2.714-0.691-1.062-0.356-2.18-0.689-2.474-2.034-0.053-0.242-0.291-0.561-0.51-0.629-1.63-0.506-2.333-1.97-3.388-3.094-1.08-1.149-2.386-2.083-3.578-3.131-0.204-0.18-0.299-0.617-0.495-0.653-1.469-0.264-2.431-0.785-1.456-2.267-0.599-1.472-0.019-2.622 0.29-3.774 0.261-0.97 0.478-1.825-0.614-2.438-0.24-0.134-1.852-1.605-2.08-1.7-0.873-0.37-1.141-2.177-0.364-2.875zm0.711 264.56c1.02-1.525 1.627-3.369 2.216-5.137 1.518-4.551 2.45-9.248 3.317-13.958 0.152-0.829 0.335-1.655 0.546-2.473 0.243-0.937 0.611-1.106 1.328-0.662 1.151 0.715 1.875 1.599 2.125 3.073 0.668 3.964 1.572 7.89 2.375 11.831 0.129 0.642 0.311 1.291 0.309 1.936 0 0.964 0.316 1.788 0.653 2.676 0.49 1.299 0.734 2.709 0.933 4.094 1.114 7.798 2.241 15.597 3.239 23.411 0.404 3.158 0.527 6.356 0.713 9.54 0.164 2.808 0.236 5.62 0.319 7.669-0.06 3.755-0.048 6.757-0.167 9.754-0.129 3.305 0.441 6.544 0.809 9.799 0.293 2.605 0.81 5.184 1.221 7.775 0.124 0.786-0.189 1.13-0.897 0.829-2.018-0.854-3.753-0.203-5.577 0.687-1.405 0.689-2.971 1.058-4.488 1.489-1.235 0.354-2.488 0.707-3.755 0.853-1.666 0.188-3.697-1.682-3.299-3.27 0.416-1.666-0.043-3.122-0.239-4.672-0.183-1.475-2e-3 -3.037-0.411-4.437-0.75-2.571-0.608-5.199-0.897-7.797-0.218-1.953-0.305-3.923-0.447-5.887-0.1-1.395-0.196-2.791-0.29-4.188-0.03-0.466-0.09-0.934-0.057-1.396 0.144-2.151 0.378-4.296 0.466-6.448 0.15-3.646 0.13-7.301 0.362-10.941 0.074-1.146 0.702-2.262 1.134-3.37 0.048-0.122 0.494-0.16 0.738-0.124 0.574 0.083 0.979-0.012 0.774-0.693-0.156-0.514-0.225-0.896 0.413-1.079 0.168-0.048 0.45-0.261 0.436-0.293-0.227-0.529-0.822-1.154-0.688-1.529 0.296-0.826 0.369-1.208-0.659-1.239-0.199-8e-3 -0.567-0.317-0.553-0.453 0.14-1.294-1.646-0.792-1.772-2.13-0.191-2.031-0.98-3.999-1.416-6.015-0.546-2.542-0.351-4.918 1.186-7.225zm-4.921-267.11c0.361 0.091 0.587 0.081 0.698 0.189 0.3 0.292 0.553 0.634 0.824 0.957-0.305 0.167-0.603 0.355-0.922 0.491-0.157 0.067-0.414 0.117-0.527 0.036-0.266-0.191-0.685-0.499-0.654-0.699 0.058-0.365 0.395-0.688 0.581-0.974zm-179.41 7.762c-0.056 0.118-0.303 0.144-0.549 0.249-0.254-0.171-0.604-0.325-0.826-0.588-0.131-0.156-0.169-0.55-0.063-0.721 0.435-0.695 0.916-1.366 1.441-1.996 0.121-0.144 0.539-0.183 0.727-0.087s0.416 0.477 0.357 0.635c-0.311 0.856-0.694 1.687-1.087 2.508zm59.352-8.838c0.57-0.844 0.9-1.854 1.317-2.798 0.577-1.303 1.466-2.068 2.973-2.19 1.301-0.106 2.555-0.483 3.593-1.417 0.398-0.358 0.994-0.518 1.522-0.705 1.085-0.383 2.057-0.924 2.765-1.855 0.549-0.718 1.277-1.068 2.162-1.165 0.819-0.09 1.411 0.076 1.807 0.932 0.815 1.766 1.585 3.592 3.396 4.647 0.153 0.09 0.304 0.252 0.371 0.415 0.7 1.717 1.425 3.424 2.054 5.167 0.409 1.134 0.655 2.328 1.003 3.485 0.282 0.934-0.071 1.454-1.042 1.462-1.858-0.246-3.747-0.358-5.571-0.764-4.143-0.922-8.376-0.977-12.558-1.494-0.652-0.08-1.334-0.015-1.96-0.178-3.102-0.81-4.123-0.149-1.832-3.542zm-9.58 0.737c0.303 0.046 0.583 0.239 0.913 0.394-0.215 0.251-0.358 0.493-0.419 0.474-0.319-0.1-0.619-0.266-0.926-0.408 0.146-0.164 0.314-0.478 0.432-0.46zm-13.136-2.889c0.531 0.212 1.043 0.467 1.647 0.75-0.292 0.436-0.389 0.751-0.594 0.852-0.548 0.271-1.42-0.546-1.364-1.27 0.011-0.124 0.255-0.354 0.311-0.332zm-4.852-0.627c0.438 0.191 0.828 0.493 1.426 0.876-0.446 0.227-0.65 0.416-0.853 0.417-0.555 4e-3 -1.114-0.115-1.095-0.831 4e-3 -0.168 0.425-0.505 0.522-0.462zm-6.159 19.645c-0.176 0.162-0.461 0.355-0.658 0.315-0.909-0.183-1.828-0.373-2.697-0.688-1.576-0.571-3.128-1.212-4.673-1.864-0.788-0.331-1.146-1.016-0.92-1.817 0.12-0.432 0.571-0.77 0.88-1.159 3.138 1.038 6.033 2.048 7.958 4.708 0.098 0.135 0.177 0.445 0.11 0.505zm5.719 1.114c-1.043-1.208-2.123-2.386-3.218-3.546-3.197-3.387-6.986-5.646-11.721-6.081-0.371-0.034-0.75-0.103-1.097-0.234-2.71-1.026-5.422-2.048-8.112-3.126-0.718-0.288-1.42-0.646-2.151-0.281-1.059 0.53-1.774 0.117-2.453-0.657-0.309-0.352-0.689-0.639-1.006-0.984-0.359-0.392-0.401-0.825-0.059-1.265 1.129-1.447 3.68-1.983 5.048-0.783 1.573 1.381 3.406 1.39 5.252 1.551 0.941 0.082 1.049-0.393 0.857-1.244-0.143-0.636 0.466-1.05 1.031-0.786 0.497 0.232 0.993 0.53 1.387 0.906 1.966 1.874 4.434 1.827 6.879 1.823 0.43 0 0.997-0.204 1.264-0.516 0.925-1.079 2.009-1.171 3.297-0.896 1.643 0.353 3.313 0.577 4.969 0.877 0.921 0.168 1.828 0.432 2.754 0.557 1.586 0.212 3.039 0.402 4.2 1.861 0.599 0.752 1.985 0.91 3.047 1.233 0.202 0.061 0.578-0.336 0.828-0.57 1.189-1.111 1.329-1.165 2.417 0.052 0.56 0.625 0.846 0.847 1.511 0.121 0.316-0.346 1.005-0.492 1.521-0.483 0.83 0.014 1.748 0.047 2.469 0.399 1.941 0.949 3.945 0.818 5.982 0.691 0.745-0.045 1.501-0.025 2.246 0.038 4.483 0.379 8.967 0.76 13.447 1.185 1.117 0.107 2.216 0.388 3.327 0.574 2.124 0.357 4.239 0.809 6.378 1.014 1.393 0.133 2.125 0.578 2.62 1.986 0.91 2.594 1.214 5.289 1.752 7.945 0.409 2.019 0.681 4.065 1.083 6.087 0.105 0.525 0.387 1.067 0.731 1.482 0.515 0.623 0.69 1.275 0.698 2.066 0.014 1.617-0.074 1.739-2.233 1.65-2.103-0.391-4.691-0.834-7.265-1.358-8.091-1.651-16.175-3.344-24.267-4.997-4.32-0.882-8.663-1.661-12.973-2.59-2.66-0.572-5.274-1.357-7.918-2.012-1.059-0.263-1.828-0.883-2.522-1.689zm54.92 33.984c-0.526 0.212-1.112-0.421-1.118-1.185-1e-3 -0.208 0.228-0.417 0.478-0.836 0.437 0.471 0.848 0.786 1.058 1.201 0.086 0.173-0.191 0.729-0.418 0.82zm1.173-4.931c-2.669-1.133-4.697-0.303-5.663 2.286-0.315 0.844-0.321 1.649 0.076 2.453 0.125 0.251 0.256 0.503 0.404 0.741 0.484 0.784 0.979 1.562 1.469 2.344-0.91 0.945-2.119 0.509-3.194 0.688-0.276 0.046-0.562 0.032-1.205 0.063-5.282-0.437-10.868-1.131-16.052-3.624-2.28-1.095-4.559-2.204-6.777-3.417-1.061-0.58-1.989-1.405-2.958-2.147-3.816-2.925-7.309-6.183-10.249-10.005-0.057-0.074-0.118-0.146-0.182-0.214-1.089-1.144-0.885-2.922-2.349-4.041-1.179-0.902-1.74-2.621-2.555-3.99-0.817-1.373-1.614-2.758-2.405-4.147-0.083-0.147-0.127-0.485-0.08-0.51 0.227-0.111 0.517-0.243 0.738-0.187 1.454 0.375 2.877 0.878 4.343 1.187 5.688 1.202 11.389 2.335 17.081 3.516 3.4 0.705 6.782 1.497 10.188 2.168 5.064 0.999 10.138 1.947 15.217 2.872 1.474 0.269 2.974 0.39 4.463 0.572 1.499 0.184 2.329 1.087 2.696 2.491 0.666 2.542 1.284 5.098 2.014 7.622 0.31 1.074-0.054 1.845-0.746 2.538-1.312 1.318-2.483 1.501-4.274 0.741zm5.359 44.467c-0.046 0.248-0.187 0.48-0.286 0.718-0.215-0.14-0.565-0.241-0.62-0.429-0.285-0.969-0.538-1.954-0.71-2.949-0.093-0.541-0.064-1.121 0.013-1.668 0.122-0.861-0.286-1.882 0.69-2.514 0.158 0.806 0.34 1.606 0.469 2.416 0.188 1.19 0.339 2.388 0.456 3.224-1e-3 0.646 0.038 0.933-0.012 1.202zm2.402-21.556c1.125-0.455 1.548-0.292 1.829 0.714 0.69 2.477-0.99 6.836-3.225 8.211-0.348 0.213-0.947 0.322-1.299 0.171-1.047-0.446-1.704-0.242-2.373 0.709-0.53 0.753-1.2 0.639-1.882 6e-3 -0.905-0.84-1.102-1.915-1.067-3.018-0.079-1.599 0.385-2.997 1.081-4.355 0.488-0.953 1.052-1.462 2.22-1.072 0.475 0.158 1.11 0.025 1.617-0.143 1.052-0.349 2.069-0.808 3.099-1.223zm-200.92 269.41c0.404-0.374 1.235 0.305 1.975 1.613 0.275 0.489 0.541 0.983 0.774 1.491 0.802 1.749 0.225 2.637-1.724 2.72-0.688 0.03-1.038-0.34-1.215-0.921-0.079-0.26-0.069-0.553-0.062-0.83 0.016-0.561 0.058-1.119 0.077-1.468-0.024-0.305-0.037-0.398-0.039-0.491-0.019-0.716-0.46-1.492 0.214-2.114zm-19.764 4.668c0.186 2e-3 0.366 0.248 0.58 0.405-0.677 0.682-1.245 1.262-1.836 1.817-0.033 0.032-0.374-0.131-0.393-0.237-0.207-1.121 0.524-2.01 1.649-1.985zm-20.292 1.86c1.645-0.619 3.317-1.17 4.524-1.581 1.14-0.074 1.519 0.354 1.44 1.023-0.492 4.164-1.573 4.667-4.997 2.316-0.382-0.262-0.801-0.523-1.063-0.889-0.133-0.185-0.04-0.818 0.096-0.869zm-0.545 5.131c0.28 0.119 0.622 0.236 0.924 0.415 0.121 0.074 0.229 0.302 0.21 0.439-0.019 0.133-0.205 0.344-0.323 0.346-0.35 0.01-0.734 3e-3 -1.04-0.137-0.157-0.073-0.222-0.445-0.233-0.688-5e-3 -0.098 0.245-0.207 0.462-0.375zm-5.35-2.155c0.595-0.176 1.235-0.373 1.833-0.313 0.701 0.069 1.376 0.4 2.476 0.748-1.622 0.483-2.79 0.982-4.092 0.667-0.223-0.056-0.518-0.284-0.561-0.481-0.041-0.183 0.17-0.571 0.344-0.621z" clip-rule="evenodd" fill="#31261E" fill-rule="evenodd"/>
</svg>
