<?xml version="1.0" encoding="UTF-8"?>
<svg enable-background="new 0 0 311.8 311.8" version="1.1" viewBox="0 0 311.8 311.8" xml:space="preserve" xmlns="http://www.w3.org/2000/svg">
<path d="m211 197.5s-2.2-92.2-63.8-113c0 0 6.3-46.7-36.6-63.8 0 0-7.3-5.1-3.2 8.5 0 0-3.2-9.8-15.8-13.6 0 0-6.3-1.6 5.1 17.1 0 0-7.9 8.5-6.8 10.4s1.5 13.9-0.1 15.1-4.5 6.3-4.5 8.2 10.8 14.6 13.3 12.7-16.1 20.2 11.1 71.7c0 0 0.9 31.9-3.5 34.1s-13.6 6.6-8.8 12.6c0 0 18.3 2.5 19.6 0s-5.8-7.6 6.7-13.3l6.9-22.7s-1.9 22.7 9.5 24c0 0-32.5-5-20.5 13.1l66.6 1.7s64 83.4 15.4 87.6c-19 1.7-25.6-10.9-29.9-27.4-1-3.9-5.8-3.3-7.1 0.5-0.9 2.6-0.6 17 11.3 31.7 19.1 23.7 77.3 10.8 56.9-43.4-15.5-40.9-12.3-18.3-21.8-51.8z"/>
</svg>
